# xmcd
#
# Track frame offsets:
#	183
#	13250
#	25233
#	38518
#	50358
#	64520
#	76020
#	91983
#	104270
#	113548
#	127070
#	142375
#	153550
#	165288
#
# Disc length: 2354
#
# Revision: 1
# Processed by: cddbd v1.5.1PL0 Copyright (c) Steve Scherf et al.
# Submitted via: CD-Datenbank 4.*
# Normalized: r0:TDELIM( - )
#
DISCID=aa09300e
DTITLE=Various Artist - Stars and Trucks Vol 1
DYEAR=1900
DGENRE=Country
TTITLE0=Kenny Rogers - Ruby, Don't Take Your Love To Town
TTITLE1=Willie Nelson - Happiness Lives Next Door
TTITLE2=Lynn Anderson - Rose Garden
TTITLE3=Guy Mitchell - Heartaches By The Number
TTITLE4=Andre Blanchard - Green Green Grass Of Home
TTITLE5=Donna Fargo - The Happiest Girl In The Whole Town
TTITLE6=Johnny Russel - Luckenbach Texas
TTITLE7=Frankie Laine - High Noon (Do Not Forsake Me)
TTITLE8=Nev Nicholls - Keep On Truckin'
TTITLE9=Patti Page - Tennesee Waltz
TTITLE10=Sammy's Saloon - Highway Calling
TTITLE11=Don Gibson - Oh, Lonesome Me
TTITLE12=Sammi Smith - Help Me Make It Through The Night
TTITLE13=Skeeter Davies - Gonna Get Along Without You Now
EXTD=
EXTT0=
EXTT1=
EXTT2=
EXTT3=
EXTT4=
EXTT5=
EXTT6=
EXTT7=
EXTT8=
EXTT9=
EXTT10=
EXTT11=
EXTT12=
EXTT13=
PLAYORDER=
